<svg xmlns="http://www.w3.org/2000/svg" style="display: none;">
  <symbol id="icon-pin" viewBox="0 0 24 24">
    <path d="M16,12V4H17V2H7V4H8V12L6,14V16H11.2V22H12.8V16H18V14L16,12Z"/>
  </symbol>

  <symbol id="icon-copy" viewBox="0 0 24 24">
    <path d="M19,21H8V7H19M19,5H8A2,2 0 0,0 6,7V21A2,2 0 0,0 8,23H19A2,2 0 0,0 21,21V7A2,2 0 0,0 19,5M16,1H4A2,2 0 0,0 2,3V17H4V3H16V1Z"/>
  </symbol>

  <symbol id="icon-expand" viewBox="0 0 24 24">
    <path d="M10,21V19H6.41L10.91,14.5L9.5,13.09L5,17.59V14H3V21H10M14.5,10.91L19,6.41V10H21V3H14V5H17.59L13.09,9.5L14.5,10.91Z"/>
  </symbol>

  <symbol id="icon-close" viewBox="0 0 24 24">
    <path d="M19 6.41L17.59 5 12 10.59 6.41 5 5 6.41 10.59 12 5 17.59 6.41 19 12 13.41 17.59 19 19 17.59 13.41 12z"/>
  </symbol>

  <symbol id="icon-check" viewBox="0 0 24 24">
    <path d="M21,7L9,19L3.5,13.5L4.91,12.09L9,16.17L19.59,5.59L21,7Z"/>
  </symbol>
</svg>
